<svg xmlns="http://www.w3.org/2000/svg" viewBox="0 0 195.1 217"><defs><style>.cls-6{fill:#ff9e00}</style></defs><g id="Layer_1"><path d="m77.2 41.3 8.9-14-11.2-18c.5-1.3 1.5-3.6 3.8-5.6C82.5 0 87.2 0 88.4 0c4.2 2.2 9.6 6.3 15.5 12 7.6 7.3 14.8 17.4 13.3 28.1l-19.1 8.1z" style="fill:#17f1d8"/><path d="M103.9 12c-.4-.4-.8-.7-1.2-1.1 0 17.3-12.5 19.9-19 20.1l-6.6 10.3L98 48.2l19.1-8.1c1.5-10.8-5.7-20.8-13.3-28.1Z" style="fill:#15c8d1"/><path d="M39.6 51.5S24.3 49 14.9 71.1s-26 80.1 8.5 124.3c0 0 7.8 8 25.6 6.9L39.5 51.5ZM156 51.5s15.3-2.5 24.7 19.6 26 80.1-8.5 124.3c0 0-7.8 8-25.6 6.9l9.5-150.8Z" class="cls-6"/><path d="M155.5 51.5c-18.5-28.6-53.2-12.8-58-10.4-4.8-2.4-39.5-18.2-58 10.4C19.6 82.3 18.6 166.4 49 202.3c0 0 22.3 12.3 48.4 11.2 26.1 1.1 48.4-11.2 48.4-11.2 30.4-35.9 29.4-120 9.5-150.8Z" style="fill:#ffd100"/><circle cx="97.7" cy="121.2" r="62" style="fill:#fff"/><path d="M98 124.7h-1.7l-7.4 17.9c-1.4 3.4-6 4.1-8.3 1.2l-13.3-16.6c-7.7 1.4-12.7 3-15.5 3.7 4.7 21.7 23.7 38.1 46.3 38.1s5.6-.3 8.2-.7l4.1-16.7c.8-3.2 4.8-4.4 7.2-2l9.4 9.3c8.7-6.8 15-16.7 17.4-27.9-5.6-1.5-19.3-6.2-46.3-6.2Z" style="fill:#009cff;fill-rule:evenodd"/></g></svg>