<svg xmlns="http://www.w3.org/2000/svg" id="Layer_1" viewBox="0 0 579 310.06"><defs><style>.cls-5{fill:#002b50}.cls-6{fill:#fff}.cls-8{fill:#ff9e00}</style></defs><path d="M85.23 146.92H55.98v52.72H86.1c14.03 0 19.41-14.39 19.36-27.4 0-20.21-12.65-25.32-20.23-25.32" style="fill:none"/><path d="M541.13 122.26c20.81 0 37.75-17.35 37.75-38.67s-17.29-37.75-37.75-37.75-37.75 17.29-37.75 37.75 16.93 38.67 37.75 38.67" style="fill:#112c4f"/><path d="m145.79 237.61-1.87-3.79c.6 1.28 1.22 2.54 1.87 3.79" class="cls-5"/><path d="M161.53 171.29c-.46-29.25-12.12-50.3-17.61-58.99-14.81-15.2-35.42-21.69-59.88-21.69h-84v219.04h56v-52.28h28c24.39 0 45-8.14 59.88-23.54 5.44-8.62 18.1-31.2 17.61-62.53ZM86.1 199.64H55.98v-52.72h29.25c7.58 0 20.23 5.11 20.23 25.32.05 13.01-5.33 27.4-19.36 27.4M504.06 246.28l-34-73.84c15.37-19.23 21.63-46.36 22.33-65.87v-16h-60.23v15.4c-.84 19.64-7.22 28.8-24.78 34.51v-104l-61.27.06v228.81c1.38-1.41 2.73-2.85 4.05-4.34 1.57-1.77 3.06-3.62 4.51-5.48h52.71v-54.35l8.08-1.86 26 56.24H578.2V135.83h-74.14z" class="cls-5"/><path d="M191.04 187.06c6.62 30.49 33.21 53.36 64.93 53.36s58.32-22.87 64.93-53.36c-7.89-2.04-27.05-8.69-64.93-8.69s-57 6.65-64.93 8.69" class="cls-6"/><path d="m227.07 59.85 12.54-19.68-15.8-25.36c.66-1.84 2.12-5.09 5.29-7.94 5.48-4.94 12.03-5.08 13.77-5.06 5.91 3.07 13.53 8.84 21.8 16.86 10.64 10.32 20.76 24.42 18.68 39.55l-26.9 11.39-29.36-9.75Z" style="fill:#17f1d8"/><path d="M264.65 18.66c-.55-.53-1.08-1.03-1.63-1.54-.09 24.35-17.57 27.98-26.71 28.21l-9.25 14.52 29.36 9.75 26.9-11.39c2.08-15.13-8.04-29.23-18.68-39.55Z" style="fill:#15c8d1"/><path d="M174.18 74.19s-21.46-3.47-34.67 27.55-36.61 112.62 12.01 174.67c0 0 10.92 11.22 36.04 9.7zM337.78 74.19s21.46-3.47 34.67 27.55 36.61 112.62-12.01 174.67c0 0-10.92 11.22-36.04 9.7z" class="cls-8"/><path d="M337.1 74.19c-25.95-40.2-74.72-17.95-81.46-14.62-6.74-3.33-55.51-25.58-81.46 14.62-27.91 43.24-29.39 161.43 13.38 211.92 0 0 31.38 17.26 68.08 15.69 36.7 1.57 68.08-15.69 68.08-15.69 42.76-50.49 41.29-168.68 13.38-211.92" style="fill:#ffd100"/><circle cx="255.93" cy="172.12" r="87.19" class="cls-6"/><path d="M256.33 177.05c-.83 0-1.64 0-2.45.01l-10.44 25.21c-2 4.84-8.46 5.75-11.73 1.65l-18.63-23.38c-10.84 1.94-17.79 4.18-21.83 5.22 6.63 30.56 33.28 53.48 65.07 53.48 3.95 0 7.82-.36 11.58-1.03l5.75-23.43c1.12-4.56 6.78-6.15 10.11-2.84l13.18 13.1c12.16-9.61 21.02-23.41 24.46-39.28-7.91-2.04-27.11-8.71-65.07-8.71" style="fill:#009cff;fill-rule:evenodd"/></svg>