<svg xmlns="http://www.w3.org/2000/svg" viewBox="0 0 86 51.2"><defs><style>.cls-3{fill:#8339aa}.cls-4{fill:#002b50}.cls-5{fill:#c977e8}</style></defs><g id="Layer_1"><path d="M20.8 18.9s-2.1-9.8-2.4-13.4l-2.6 1.4.7 4.6s-3.4-2.6-3.6-3.7c0 0 1.4-5.6 2.2-6.3 0 0 6.1-1.8 7.2-1.5 0 0 11.8 5.9 15.2 11.1l-6.9 7.4-9.6.3Z" class="cls-5"/><path d="M45 18.5s7.4-6.6 4.4-8.9-12.8 8.8-12.8 8.8l8.4.2Z" style="fill:#722b93"/><path d="M74.3 25.7v16.2l-5-10.8c2.3-2.8 3.2-6.8 3.3-9.6v-2.3h-8.9v2.3c-.1 2.9-1.1 4.2-3.7 5.1V11.4h-9v6.5c-3.3-3.3-7.8-5.1-13.2-5.1s-10.7 2-14.1 5.8c-1 1.2-1.9 2.5-2.5 3.9-2.2-2.2-5.2-3.2-8.8-3.2H0v32.1h8.3v-7.7h4.1c3.6 0 6.6-1.2 8.8-3.4.7 1.4 1.6 2.8 2.6 4 3.3 3.8 8.2 5.7 14 5.7s10.5-2 13.8-5.7c.2-.3.5-.5.7-.8h7.8v-8l1.2-.3 3.8 8.2h20.2V25.9H74.4Zm-61.6 9.4H8.3v-7.7h4.3c1.1 0 3 .7 3 3.7 0 1.9-.8 4-2.9 4m25 8.8c-7 0-12.6-5.8-12.6-12.8s5.8-12.5 12.6-12.5 12.6 5.7 12.6 12.5-5.7 12.8-12.6 12.8" class="cls-4"/><path d="M20.8 18.9s-12.6 7.3-5.6 11.6 21.5-13.1 24.5-15.4c3.1-2.4 7.2-5.7 8.8-5.9l-11.1 1.9z" class="cls-5"/><path d="M27.9 32.9c1 4.5 4.9 7.8 9.6 7.8s8.6-3.3 9.6-7.8c-1.2-.3-4-1.3-9.6-1.3s-8.4 1-9.6 1.3" style="fill:#009cff"/><path d="M37.4 11.1c-.4-.6-1-1.3-1.6-1.9s-1.1-1.1-1.6-1.5c-.6.2-1.4.4-2.3.8-1.4.5-2.8 1.1-4.5 2-3 1.5-5.4 3.1-7.4 4.6.3 1.3.5 2.5.8 3.8 0 0 7.6-1.1 11.4-3.7 3.7-2.6 5.2-4.1 5.2-4.1" class="cls-3"/><path d="M35 14.7c-.3-1-1.5-4.7-3.6-7s-.2-.1-.4-.1c-1 .3-5.2 1.6-6.7 3s-.1.3 0 .4c.6 1 3 5.3 3.5 7.1s.3.3.5.2c1.2-.4 5-1.9 6.7-3.3s.2-.2.1-.4Z" style="fill:#faeb59"/><path d="M32.9 14s-.7-2.8-2.2-4.3c0 0-3.3.9-4.2 1.9 0 0 2 3.5 2.2 4.5 0 0 3.1-1.1 4.2-2.1" class="cls-3"/><path d="M85.5 17.7c0 3.1-2.5 5.7-5.6 5.7s-5.6-2.5-5.6-5.7 2.5-5.5 5.6-5.5 5.6 2.5 5.6 5.5" class="cls-4"/></g></svg>